<svg width="162" height="100" viewBox="0 0 162 100" fill="none" xmlns="http://www.w3.org/2000/svg">
<g opacity="0.9">
<path d="M67.2779 44.7319H74.9436H88.0723C90.187 44.7319 92.2312 44.4343 94.1696 43.8918C104.021 41.1442 111.158 31.8863 110.558 21.1234C109.906 9.20538 99.7207 0 87.7022 0H51.2063V12.793V14.2456L61.8502 27.9137H81.7282L71.0843 14.2456H87.9137C92.0021 14.2456 95.5794 17.1507 96.1786 21.1584C96.9011 26.1636 93.0066 30.4863 88.0899 30.4863H83.7372H63.8592H51.2063V36.3665V44.7319V63.4576H67.2779V44.7319Z" fill="#2699D4"/>
<path d="M109.413 63.4576L96.8307 47.3044H76.9526L89.535 63.4576H109.413Z" fill="#2699D4"/>
<path d="M0.639648 84.2804H5.75686C7.65058 84.2804 9.04302 84.6901 9.93418 85.5095C10.8393 86.329 11.2918 87.4401 11.2918 88.8429C11.2918 89.8012 11.069 90.6345 10.6234 91.3429C10.1779 92.0373 9.50253 92.5651 8.59744 92.9262L11.7095 98.8637H8.91074L6.23726 93.3845C6.08409 93.3984 5.98662 93.4054 5.94484 93.4054C5.90307 93.4054 5.84041 93.4054 5.75686 93.4054H3.14604V98.8637H0.639648V84.2804ZM5.65243 91.1137C6.72461 91.1137 7.49045 90.9123 7.94996 90.5095C8.42339 90.1067 8.6601 89.5512 8.6601 88.8429C8.6601 88.1762 8.41642 87.6345 7.92907 87.2179C7.44172 86.7873 6.68284 86.572 5.65243 86.572H3.14604V91.1137H5.65243Z" fill="#2699D4"/>
<path d="M20.5888 99.072C19.6002 99.072 18.709 98.9192 17.9153 98.6137C17.1216 98.2942 16.4393 97.8359 15.8684 97.2387C15.3114 96.6276 14.8798 95.8776 14.5735 94.9887C14.2671 94.0859 14.1139 93.0581 14.1139 91.9054V91.0304C14.1139 89.9331 14.2671 88.954 14.5735 88.0929C14.8798 87.2317 15.3114 86.5026 15.8684 85.9054C16.4393 85.3081 17.1216 84.8567 17.9153 84.5512C18.7229 84.2317 19.6141 84.072 20.5888 84.072C21.5635 84.072 22.4477 84.2317 23.2414 84.5512C24.049 84.8567 24.7313 85.3081 25.2883 85.9054C25.8592 86.4887 26.2978 87.2179 26.6041 88.0929C26.9105 88.954 27.0636 89.9331 27.0636 91.0304V91.9054C27.0636 93.0581 26.9105 94.079 26.6041 94.9679C26.2978 95.8567 25.8592 96.6067 25.2883 97.2179C24.7313 97.829 24.049 98.2942 23.2414 98.6137C22.4477 98.9192 21.5635 99.072 20.5888 99.072ZM20.5888 96.7804C21.7445 96.7804 22.6705 96.3915 23.3667 95.6137C24.0769 94.8359 24.4319 93.5998 24.4319 91.9054V91.0304C24.4319 89.4748 24.0769 88.3081 23.3667 87.5304C22.6566 86.7526 21.7306 86.3637 20.5888 86.3637C19.4191 86.3637 18.4862 86.7456 17.79 87.5095C17.0938 88.2734 16.7457 89.447 16.7457 91.0304V91.9054C16.7457 93.572 17.0938 94.8012 17.79 95.5929C18.5001 96.3845 19.4331 96.7804 20.5888 96.7804Z" fill="#2699D4"/>
<path d="M35.6263 99.072C33.7744 99.072 32.375 98.6345 31.4281 97.7595C30.4952 96.8845 29.98 95.6554 29.8825 94.072H32.556C32.6256 94.9887 32.9041 95.6692 33.3915 96.1137C33.8788 96.5581 34.6238 96.7804 35.6263 96.7804C36.5871 96.7804 37.2764 96.6067 37.6941 96.2595C38.1118 95.9123 38.3207 95.447 38.3207 94.8637C38.3207 94.322 38.1188 93.9123 37.715 93.6345C37.3112 93.3567 36.8029 93.1276 36.1903 92.947C35.5776 92.7526 34.9162 92.572 34.206 92.4054C33.4959 92.2248 32.8345 91.9748 32.2218 91.6554C31.6091 91.3359 31.1009 90.9054 30.6971 90.3637C30.2933 89.822 30.0914 89.0859 30.0914 88.1554C30.0914 87.572 30.2028 87.0373 30.4256 86.5512C30.6484 86.0512 30.9756 85.6206 31.4072 85.2595C31.8528 84.8845 32.3959 84.5929 33.0364 84.3845C33.6908 84.1762 34.4497 84.072 35.313 84.072C37.1093 84.072 38.453 84.4887 39.3441 85.322C40.2353 86.1554 40.7366 87.3359 40.848 88.8637H38.1745C38.1049 88.0304 37.8473 87.4054 37.4017 86.9887C36.9561 86.572 36.2599 86.3637 35.313 86.3637C34.394 86.3637 33.7326 86.5373 33.3288 86.8845C32.925 87.2179 32.7231 87.6484 32.7231 88.1762C32.7231 88.7456 32.925 89.1762 33.3288 89.4679C33.7326 89.7456 34.2408 89.9748 34.8535 90.1554C35.4662 90.3359 36.1276 90.5095 36.8377 90.6762C37.5479 90.829 38.2093 91.0581 38.822 91.3637C39.4346 91.6692 39.9429 92.0998 40.3467 92.6554C40.7505 93.197 40.9524 93.9401 40.9524 94.8845C40.9524 95.4956 40.841 96.0581 40.6182 96.572C40.4094 97.0859 40.0821 97.5304 39.6365 97.9054C39.191 98.2665 38.634 98.5512 37.9656 98.7595C37.2972 98.9679 36.5175 99.072 35.6263 99.072Z" fill="#2699D4"/>
<path d="M44.3016 84.2804H47.8523L53.6588 95.322H53.7006V84.2804H56.207V98.8637H52.8651L46.8498 87.4054H46.808V98.8637H44.3016V84.2804Z" fill="#2699D4"/>
<path d="M66.1273 99.072C65.1386 99.072 64.2475 98.9192 63.4538 98.6137C62.6601 98.2942 61.9778 97.8359 61.4069 97.2387C60.8499 96.6276 60.4183 95.8776 60.1119 94.9887C59.8056 94.0859 59.6524 93.0581 59.6524 91.9054V91.0304C59.6524 89.9331 59.8056 88.954 60.1119 88.0929C60.4183 87.2317 60.8499 86.5026 61.4069 85.9054C61.9778 85.3081 62.6601 84.8567 63.4538 84.5512C64.2614 84.2317 65.1526 84.072 66.1273 84.072C67.102 84.072 67.9862 84.2317 68.7799 84.5512C69.5875 84.8567 70.2698 85.3081 70.8268 85.9054C71.3977 86.4887 71.8363 87.2179 72.1426 88.0929C72.449 88.954 72.6021 89.9331 72.6021 91.0304V91.9054C72.6021 93.0581 72.449 94.079 72.1426 94.9679C71.8363 95.8567 71.3977 96.6067 70.8268 97.2179C70.2698 97.829 69.5875 98.2942 68.7799 98.6137C67.9862 98.9192 67.102 99.072 66.1273 99.072ZM66.1273 96.7804C67.283 96.7804 68.209 96.3915 68.9052 95.6137C69.6153 94.8359 69.9704 93.5998 69.9704 91.9054V91.0304C69.9704 89.4748 69.6153 88.3081 68.9052 87.5304C68.195 86.7526 67.2691 86.3637 66.1273 86.3637C64.9576 86.3637 64.0247 86.7456 63.3285 87.5095C62.6323 88.2734 62.2841 89.447 62.2841 91.0304V91.9054C62.2841 93.572 62.6323 94.8012 63.3285 95.5929C64.0386 96.3845 64.9715 96.7804 66.1273 96.7804Z" fill="#2699D4"/>
<path d="M81.7914 99.072C79.9673 99.072 78.5331 98.5512 77.4888 97.5095C76.4584 96.454 75.9432 94.9609 75.9432 93.0304V84.2804H78.4495V92.9262C78.4495 94.2179 78.7489 95.1831 79.3477 95.822C79.9464 96.4609 80.761 96.7804 81.7914 96.7804C82.8357 96.7804 83.6503 96.4679 84.2351 95.8429C84.8339 95.204 85.1333 94.2317 85.1333 92.9262V84.2804H87.6396V93.0304C87.6396 93.9748 87.5004 94.822 87.2219 95.572C86.9574 96.322 86.5675 96.9609 86.0523 97.4887C85.551 98.0026 84.9383 98.3984 84.2142 98.6762C83.4902 98.9401 82.6826 99.072 81.7914 99.072Z" fill="#2699D4"/>
<g opacity="0.8">
<path d="M100.904 99.072C99.9572 99.072 99.1011 98.9184 98.3355 98.6111C97.5699 98.3039 96.9087 97.85 96.3518 97.2494C95.809 96.6488 95.3844 95.9086 95.0781 95.0287C94.7858 94.1349 94.6396 93.1153 94.6396 91.9701V90.9645C94.6396 89.8751 94.7858 88.9044 95.0781 88.0525C95.3844 87.2005 95.809 86.4812 96.3518 85.8946C96.9087 85.2941 97.5699 84.8402 98.3355 84.5329C99.115 84.2257 99.9711 84.072 100.904 84.072C101.836 84.072 102.686 84.2257 103.451 84.5329C104.231 84.8402 104.892 85.2871 105.435 85.8737C105.992 86.4603 106.416 87.1865 106.709 88.0525C107.015 88.9044 107.168 89.8751 107.168 90.9645V91.9701C107.168 93.1153 107.015 94.1279 106.709 95.0078C106.416 95.8877 105.992 96.6279 105.435 97.2284C104.892 97.829 104.231 98.2899 103.451 98.6111C102.686 98.9184 101.836 99.072 100.904 99.072ZM100.904 97.2703C102.157 97.2703 103.173 96.8374 103.952 95.9715C104.732 95.0916 105.122 93.7578 105.122 91.9701V90.9645C105.122 90.1265 105.017 89.3933 104.808 88.7648C104.6 88.1223 104.307 87.5916 103.931 87.1726C103.569 86.7396 103.131 86.4184 102.616 86.2089C102.101 85.9854 101.53 85.8737 100.904 85.8737C100.277 85.8737 99.7066 85.9784 99.1916 86.1879C98.6765 86.3974 98.2311 86.7187 97.8552 87.1516C97.4794 87.5706 97.1871 88.1014 96.9783 88.7438C96.7834 89.3723 96.6859 90.1125 96.6859 90.9645V91.9701C96.6859 92.8639 96.7903 93.646 96.9991 94.3164C97.2079 94.9729 97.5003 95.5245 97.8761 95.9715C98.252 96.4044 98.6974 96.7326 99.2125 96.9561C99.7275 97.1656 100.291 97.2703 100.904 97.2703Z" fill="#2699D4"/>
<path d="M109.882 88.4296H118.442V98.9044H116.563V90.1474H111.761V98.9044H109.882V88.4296Z" fill="#2699D4"/>
<path d="M120.313 97.3541H120.626C121.03 97.3541 121.343 97.2215 121.566 96.9561C121.802 96.6907 121.969 96.3136 122.067 95.8248C122.178 95.322 122.241 94.7215 122.255 94.0231C122.282 93.3248 122.296 92.5427 122.296 91.6768V88.4296H129.813V98.9044H127.934V90.1474H124.176V91.6768C124.176 92.6405 124.155 93.5692 124.113 94.4631C124.071 95.3569 123.939 96.146 123.716 96.8304C123.494 97.5148 123.139 98.0595 122.651 98.4645C122.178 98.8695 121.503 99.072 120.626 99.072H120.313V97.3541Z" fill="#2699D4"/>
<path d="M135.763 99.072C134.579 99.072 133.688 98.7927 133.09 98.234C132.505 97.6754 132.213 96.9142 132.213 95.9505C132.213 94.903 132.561 94.079 133.257 93.4784C133.967 92.8639 135.115 92.5567 136.702 92.5567H139.103V91.991C139.103 91.3067 138.923 90.8039 138.561 90.4826C138.213 90.1474 137.628 89.9798 136.807 89.9798C136.055 89.9798 135.505 90.1125 135.157 90.3779C134.809 90.6293 134.607 90.9575 134.552 91.3625H132.631C132.658 90.9296 132.763 90.5245 132.944 90.1474C133.139 89.7703 133.41 89.4421 133.758 89.1628C134.106 88.8835 134.531 88.667 135.032 88.5134C135.547 88.3458 136.138 88.262 136.807 88.262C138.24 88.262 139.291 88.5832 139.96 89.2257C140.642 89.8681 140.983 90.8248 140.983 92.0958V98.9044H139.521L139.291 97.3332H139.25C138.401 98.4924 137.238 99.072 135.763 99.072ZM135.971 97.3541C136.403 97.3541 136.807 97.2843 137.182 97.1446C137.572 96.991 137.906 96.7885 138.185 96.5371C138.477 96.2717 138.7 95.9715 138.853 95.6363C139.02 95.2871 139.103 94.917 139.103 94.5259V94.1488H136.807C135.832 94.1488 135.15 94.3164 134.76 94.6516C134.371 94.9729 134.176 95.3988 134.176 95.9296C134.176 96.3486 134.322 96.6907 134.614 96.9561C134.92 97.2215 135.373 97.3541 135.971 97.3541Z" fill="#2699D4"/>
<path d="M145.696 90.1474H142.355V88.4296H150.916V90.1474H147.576V98.9044H145.696V90.1474Z" fill="#2699D4"/>
<path d="M155.42 99.072C154.236 99.072 153.345 98.7927 152.747 98.234C152.162 97.6754 151.87 96.9142 151.87 95.9505C151.87 94.903 152.218 94.079 152.914 93.4784C153.624 92.8639 154.772 92.5567 156.359 92.5567H158.76V91.991C158.76 91.3067 158.579 90.8039 158.218 90.4826C157.87 90.1474 157.285 89.9798 156.464 89.9798C155.712 89.9798 155.162 90.1125 154.814 90.3779C154.466 90.6293 154.264 90.9575 154.208 91.3625H152.287C152.315 90.9296 152.42 90.5245 152.601 90.1474C152.796 89.7703 153.067 89.4421 153.415 89.1628C153.763 88.8835 154.188 88.667 154.689 88.5134C155.204 88.3458 155.795 88.262 156.464 88.262C157.897 88.262 158.948 88.5832 159.617 89.2257C160.299 89.8681 160.64 90.8248 160.64 92.0958V98.9044H159.178L158.948 97.3332H158.907C158.057 98.4924 156.895 99.072 155.42 99.072ZM155.628 97.3541C156.06 97.3541 156.464 97.2843 156.839 97.1446C157.229 96.991 157.563 96.7885 157.842 96.5371C158.134 96.2717 158.357 95.9715 158.51 95.6363C158.677 95.2871 158.76 94.917 158.76 94.5259V94.1488H156.464C155.489 94.1488 154.807 94.3164 154.417 94.6516C154.028 94.9729 153.833 95.3988 153.833 95.9296C153.833 96.3486 153.979 96.6907 154.271 96.9561C154.577 97.2215 155.03 97.3541 155.628 97.3541Z" fill="#2699D4"/>
</g>
</g>
</svg>
