<svg width="200" height="32" viewBox="0 0 200 32" fill="none" xmlns="http://www.w3.org/2000/svg">
<g opacity="0.9">
<path d="M9.61462 22.3522H13.2079H19.362C20.3532 22.3522 21.3115 22.2068 22.2201 21.9418C26.8377 20.5996 30.1832 16.0769 29.9024 10.8191C29.5967 4.99697 24.8222 0.5 19.1885 0.5H2.08105V6.74959V7.45918L7.07039 14.1362H16.3882L11.3989 7.45918H19.2876C21.2041 7.45918 22.881 8.87838 23.1618 10.8362C23.5005 13.2813 21.6749 15.393 19.3702 15.393H17.3299H8.01208H2.08105V18.2656V22.3522V31.5H9.61462V22.3522Z" fill="#2699D4"/>
<path d="M29.3655 31.5L23.4675 23.6089H14.1497L20.0476 31.5H29.3655Z" fill="#2699D4"/>
<path d="M39 8.62194H44.1196C46.0142 8.62194 47.4072 9.03652 48.2988 9.86568C49.2043 10.6948 49.6571 11.8191 49.6571 13.2385C49.6571 14.2082 49.4342 15.0514 48.9884 15.7682C48.5426 16.4709 47.867 17.0049 46.9615 17.3703L50.075 23.3782H47.2749L44.6002 17.8341C44.4469 17.8481 44.3494 17.8551 44.3076 17.8551C44.2658 17.8551 44.2032 17.8551 44.1196 17.8551H41.5075V23.3782H39V8.62194ZM44.0151 15.5363C45.0878 15.5363 45.854 15.3325 46.3137 14.925C46.7873 14.5174 47.0241 13.9553 47.0241 13.2385C47.0241 12.564 46.7804 12.0159 46.2928 11.5943C45.8052 11.1586 45.046 10.9408 44.0151 10.9408H41.5075V15.5363H44.0151Z" fill="#2699D4"/>
<path d="M58.9583 23.589C57.9692 23.589 57.0777 23.4344 56.2836 23.1252C55.4895 22.802 54.8069 22.3382 54.2358 21.7339C53.6785 21.1156 53.2467 20.3567 52.9402 19.4572C52.6337 18.5438 52.4805 17.5038 52.4805 16.3374V15.452C52.4805 14.3417 52.6337 13.351 52.9402 12.4796C53.2467 11.6083 53.6785 10.8705 54.2358 10.2662C54.8069 9.6619 55.4895 9.20516 56.2836 8.89598C57.0916 8.57275 57.9832 8.41113 58.9583 8.41113C59.9335 8.41113 60.8181 8.57275 61.6121 8.89598C62.4201 9.20516 63.1027 9.6619 63.66 10.2662C64.2311 10.8565 64.6699 11.5943 64.9764 12.4796C65.2829 13.351 65.4361 14.3417 65.4361 15.452V16.3374C65.4361 17.5038 65.2829 18.5367 64.9764 19.4362C64.6699 20.3356 64.2311 21.0945 63.66 21.7128C63.1027 22.3312 62.4201 22.802 61.6121 23.1252C60.8181 23.4344 59.9335 23.589 58.9583 23.589ZM58.9583 21.2702C60.1146 21.2702 61.041 20.8767 61.7375 20.0897C62.448 19.3027 62.8032 18.0519 62.8032 16.3374V15.452C62.8032 13.878 62.448 12.6975 61.7375 11.9105C61.027 11.1235 60.1006 10.73 58.9583 10.73C57.7881 10.73 56.8548 11.1164 56.1582 11.8894C55.4617 12.6623 55.1134 13.8499 55.1134 15.452V16.3374C55.1134 18.0238 55.4617 19.2675 56.1582 20.0686C56.8687 20.8696 57.8021 21.2702 58.9583 21.2702Z" fill="#2699D4"/>
<path d="M74.0028 23.589C72.15 23.589 70.7499 23.1463 69.8026 22.2609C68.8693 21.3756 68.3538 20.1318 68.2563 18.5297H70.931C71.0007 19.4572 71.2793 20.1459 71.7669 20.5956C72.2544 21.0453 72.9997 21.2702 74.0028 21.2702C74.964 21.2702 75.6536 21.0945 76.0715 20.7431C76.4894 20.3918 76.6984 19.921 76.6984 19.3308C76.6984 18.7827 76.4964 18.3681 76.0924 18.087C75.6884 17.806 75.1799 17.5741 74.567 17.3914C73.954 17.1946 73.2923 17.0119 72.5818 16.8433C71.8713 16.6606 71.2096 16.4076 70.5967 16.0844C69.9837 15.7612 69.4753 15.3255 69.0713 14.7774C68.6673 14.2293 68.4653 13.4845 68.4653 12.5429C68.4653 11.9526 68.5767 11.4116 68.7996 10.9197C69.0225 10.4138 69.3499 9.97811 69.7817 9.61271C70.2275 9.23327 70.7708 8.93814 71.4116 8.72734C72.0664 8.51653 72.8256 8.41113 73.6893 8.41113C75.4864 8.41113 76.8307 8.83274 77.7223 9.67595C78.6139 10.5192 79.1154 11.7137 79.2268 13.2596H76.5521C76.4824 12.4164 76.2247 11.784 75.7789 11.3624C75.3332 10.9408 74.6366 10.73 73.6893 10.73C72.7699 10.73 72.1082 10.9056 71.7042 11.257C71.3002 11.5943 71.0982 12.0299 71.0982 12.564C71.0982 13.1402 71.3002 13.5758 71.7042 13.8709C72.1082 14.152 72.6166 14.3839 73.2296 14.5666C73.8426 14.7493 74.5043 14.925 75.2147 15.0936C75.9252 15.2482 76.5869 15.4801 77.1999 15.7893C77.8128 16.0984 78.3213 16.5341 78.7253 17.0962C79.1293 17.6443 79.3313 18.3962 79.3313 19.3518C79.3313 19.9702 79.2198 20.5394 78.997 21.0594C78.788 21.5793 78.4606 22.0291 78.0148 22.4085C77.569 22.7739 77.0118 23.062 76.3431 23.2728C75.6745 23.4836 74.8943 23.589 74.0028 23.589Z" fill="#2699D4"/>
<path d="M82.682 8.62194H86.2344L92.0435 19.7945H92.0853V8.62194H94.5929V23.3782H91.2495L85.2314 11.784H85.1896V23.3782H82.682V8.62194Z" fill="#2699D4"/>
<path d="M104.518 23.589C103.529 23.589 102.637 23.4344 101.843 23.1252C101.049 22.802 100.366 22.3382 99.7952 21.7339C99.238 21.1156 98.8061 20.3567 98.4996 19.4572C98.1932 18.5438 98.0399 17.5038 98.0399 16.3374V15.452C98.0399 14.3417 98.1932 13.351 98.4996 12.4796C98.8061 11.6083 99.238 10.8705 99.7952 10.2662C100.366 9.6619 101.049 9.20516 101.843 8.89598C102.651 8.57275 103.543 8.41113 104.518 8.41113C105.493 8.41113 106.377 8.57275 107.172 8.89598C107.98 9.20516 108.662 9.6619 109.219 10.2662C109.791 10.8565 110.229 11.5943 110.536 12.4796C110.842 13.351 110.996 14.3417 110.996 15.452V16.3374C110.996 17.5038 110.842 18.5367 110.536 19.4362C110.229 20.3356 109.791 21.0945 109.219 21.7128C108.662 22.3312 107.98 22.802 107.172 23.1252C106.377 23.4344 105.493 23.589 104.518 23.589ZM104.518 21.2702C105.674 21.2702 106.6 20.8767 107.297 20.0897C108.007 19.3027 108.363 18.0519 108.363 16.3374V15.452C108.363 13.878 108.007 12.6975 107.297 11.9105C106.586 11.1235 105.66 10.73 104.518 10.73C103.348 10.73 102.414 11.1164 101.718 11.8894C101.021 12.6623 100.673 13.8499 100.673 15.452V16.3374C100.673 18.0238 101.021 19.2675 101.718 20.0686C102.428 20.8696 103.361 21.2702 104.518 21.2702Z" fill="#2699D4"/>
<path d="M120.189 23.589C118.364 23.589 116.929 23.062 115.884 22.008C114.854 20.9399 114.338 19.4291 114.338 17.4757V8.62194H116.846V17.3703C116.846 18.6773 117.145 19.654 117.744 20.3005C118.343 20.9469 119.158 21.2702 120.189 21.2702C121.234 21.2702 122.049 20.954 122.634 20.3215C123.233 19.6751 123.532 18.6913 123.532 17.3703V8.62194H126.04V17.4757C126.04 18.4313 125.901 19.2886 125.622 20.0475C125.357 20.8064 124.967 21.4529 124.452 21.9869C123.95 22.5069 123.337 22.9074 122.613 23.1885C121.889 23.4555 121.081 23.589 120.189 23.589Z" fill="#2699D4"/>
<g opacity="0.8">
<path d="M139.337 23.589C138.391 23.589 137.536 23.4335 136.771 23.1226C136.007 22.8117 135.346 22.3524 134.79 21.7448C134.248 21.1371 133.824 20.3881 133.518 19.4978C133.226 18.5933 133.08 17.5617 133.08 16.4028V15.3853C133.08 14.283 133.226 13.3008 133.518 12.4388C133.824 11.5767 134.248 10.8489 134.79 10.2554C135.346 9.64769 136.007 9.1884 136.771 8.87749C137.55 8.56659 138.405 8.41113 139.337 8.41113C140.268 8.41113 141.116 8.56659 141.881 8.87749C142.659 9.1884 143.32 9.64062 143.862 10.2342C144.418 10.8277 144.842 11.5626 145.134 12.4388C145.44 13.3008 145.593 14.283 145.593 15.3853V16.4028C145.593 17.5617 145.44 18.5862 145.134 19.4766C144.842 20.3669 144.418 21.1159 143.862 21.7236C143.32 22.3312 142.659 22.7976 141.881 23.1226C141.116 23.4335 140.268 23.589 139.337 23.589ZM139.337 21.766C140.588 21.766 141.603 21.3279 142.381 20.4517C143.16 19.5614 143.549 18.2117 143.549 16.4028V15.3853C143.549 14.5374 143.445 13.7955 143.236 13.1595C143.028 12.5094 142.736 11.9724 142.361 11.5485C141.999 11.1104 141.561 10.7853 141.047 10.5733C140.532 10.3472 139.962 10.2342 139.337 10.2342C138.711 10.2342 138.141 10.3402 137.626 10.5521C137.112 10.7641 136.667 11.0892 136.292 11.5273C135.916 11.9512 135.624 12.4882 135.416 13.1383C135.221 13.7743 135.124 14.5233 135.124 15.3853V16.4028C135.124 17.3073 135.228 18.0987 135.437 18.777C135.645 19.4412 135.937 19.9994 136.313 20.4517C136.688 20.8898 137.133 21.2219 137.647 21.448C138.162 21.66 138.725 21.766 139.337 21.766Z" fill="#2699D4"/>
<path d="M148.303 12.8203H156.854V23.4194H154.977V14.5586H150.18V23.4194H148.303V12.8203Z" fill="#2699D4"/>
<path d="M158.722 21.8508H159.035C159.438 21.8508 159.751 21.7165 159.973 21.448C160.21 21.1795 160.377 20.7979 160.474 20.3033C160.585 19.7945 160.648 19.1869 160.662 18.4802C160.689 17.7736 160.703 16.9822 160.703 16.1061V12.8203H168.211V23.4194H166.334V14.5586H162.58V16.1061C162.58 17.0812 162.559 18.021 162.518 18.9254C162.476 19.8299 162.344 20.6283 162.121 21.3208C161.899 22.0133 161.544 22.5644 161.058 22.9743C160.585 23.3841 159.911 23.589 159.035 23.589H158.722V21.8508Z" fill="#2699D4"/>
<path d="M174.153 23.589C172.971 23.589 172.082 23.3064 171.484 22.7411C170.9 22.1758 170.608 21.4056 170.608 20.4305C170.608 19.3706 170.955 18.5368 171.651 17.9291C172.36 17.3073 173.507 16.9964 175.092 16.9964H177.49V16.424C177.49 15.7316 177.309 15.2228 176.948 14.8978C176.6 14.5586 176.016 14.389 175.196 14.389C174.445 14.389 173.896 14.5233 173.548 14.7918C173.201 15.0461 172.999 15.3783 172.944 15.7881H171.025C171.053 15.35 171.157 14.9402 171.338 14.5586C171.532 14.177 171.803 13.8449 172.151 13.5623C172.499 13.2796 172.923 13.0606 173.423 12.9051C173.938 12.7356 174.529 12.6508 175.196 12.6508C176.628 12.6508 177.678 12.9758 178.345 13.6259C179.026 14.276 179.367 15.244 179.367 16.53V23.4194H177.907L177.678 21.8296H177.636C176.788 23.0025 175.627 23.589 174.153 23.589ZM174.362 21.8508C174.793 21.8508 175.196 21.7801 175.571 21.6388C175.961 21.4833 176.294 21.2784 176.572 21.024C176.864 20.7555 177.087 20.4517 177.24 20.1125C177.407 19.7592 177.49 19.3847 177.49 18.989V18.6074H175.196C174.223 18.6074 173.541 18.777 173.152 19.1162C172.763 19.4412 172.568 19.8723 172.568 20.4093C172.568 20.8332 172.714 21.1795 173.006 21.448C173.312 21.7165 173.764 21.8508 174.362 21.8508Z" fill="#2699D4"/>
<path d="M184.075 14.5586H180.738V12.8203H189.289V14.5586H185.952V23.4194H184.075V14.5586Z" fill="#2699D4"/>
<path d="M193.786 23.589C192.604 23.589 191.715 23.3064 191.117 22.7411C190.533 22.1758 190.241 21.4056 190.241 20.4305C190.241 19.3706 190.588 18.5368 191.284 17.9291C191.993 17.3073 193.14 16.9964 194.725 16.9964H197.123V16.424C197.123 15.7316 196.942 15.2228 196.581 14.8978C196.233 14.5586 195.649 14.389 194.829 14.389C194.078 14.389 193.529 14.5233 193.181 14.7918C192.834 15.0461 192.632 15.3783 192.577 15.7881H190.658C190.686 15.35 190.79 14.9402 190.971 14.5586C191.165 14.177 191.437 13.8449 191.784 13.5623C192.132 13.2796 192.556 13.0606 193.056 12.9051C193.571 12.7356 194.162 12.6508 194.829 12.6508C196.261 12.6508 197.311 12.9758 197.978 13.6259C198.659 14.276 199 15.244 199 16.53V23.4194H197.54L197.311 21.8296H197.269C196.421 23.0025 195.26 23.589 193.786 23.589ZM193.995 21.8508C194.426 21.8508 194.829 21.7801 195.204 21.6388C195.594 21.4833 195.927 21.2784 196.205 21.024C196.497 20.7555 196.72 20.4517 196.873 20.1125C197.04 19.7592 197.123 19.3847 197.123 18.989V18.6074H194.829C193.856 18.6074 193.174 18.777 192.785 19.1162C192.396 19.4412 192.201 19.8723 192.201 20.4093C192.201 20.8332 192.347 21.1795 192.639 21.448C192.945 21.7165 193.397 21.8508 193.995 21.8508Z" fill="#2699D4"/>
</g>
</g>
</svg>
